# xmcd
#
# Track frame offsets: 
#        150
#        26427
#        39807
#        54230
#        72845
#        89332
#        115052
#        138867
#        158207
#        179260
#        201272
#        219567
#        240570
#        256372
#        269947
#
# Disc length: 3714 seconds
#
# Revision: 3
# Processed by: cddbd v1.5.1PL0 Copyright (c) Steve Scherf et al.
# Submitted via: ExactAudioCopy v0.95a3
#
DISCID=d00e800f
DTITLE=McGuffey Lane - Greatest Hits - Live and More!
DYEAR=1994
DGENRE=Country
TTITLE0=Ain't Life Funny
TTITLE1=People Like You
TTITLE2=Ain't No One (To Love You Like I Do)
TTITLE3=Do You Think (We'll Ever Fall In Love)
TTITLE4=Diana Might
TTITLE5=Outlaw Rider
TTITLE6=Let's Hold On To The Night
TTITLE7=Long Time Lovin' You
TTITLE8=Be A Friend Of Mine
TTITLE9=Green Country Mountains
TTITLE10=The Legend
TTITLE11=Rock 'N' Roll (Will Keep You Young)
TTITLE12=A New Beginning
TTITLE13=Leavin' It All Behind
TTITLE14=Black Mountain Rag
EXTD=YEAR: 1994
EXTT0=
EXTT1=
EXTT2=
EXTT3=
EXTT4=
EXTT5=
EXTT6=
EXTT7=
EXTT8=
EXTT9=
EXTT10=
EXTT11=
EXTT12=
EXTT13=
EXTT14=
PLAYORDER=
